<svg width="64" height="64" viewBox="0 0 64 64" fill="none" xmlns="http://www.w3.org/2000/svg">
<rect width="64" height="64" rx="10" fill="#F7CE5A"/>
<path d="M19.376 25.816H12.516V42H8.68V22.4H23.212V42H19.376V25.816ZM38.1828 27.188C38.1828 28.14 38.0055 29.1013 37.6508 30.072C37.3148 31.0427 36.8761 31.9947 36.3348 32.928C35.8121 33.8613 35.2241 34.7667 34.5708 35.644C33.9361 36.5027 33.3108 37.296 32.6948 38.024L31.2108 39.172V39.312L33.2268 38.92H38.6028V42H26.8148V40.124C27.2628 39.6573 27.7668 39.116 28.3268 38.5C28.8868 37.8653 29.4468 37.2027 30.0068 36.512C30.5855 35.8027 31.1455 35.0747 31.6868 34.328C32.2281 33.5813 32.7135 32.8347 33.1428 32.088C33.5721 31.3227 33.9081 30.5853 34.1508 29.876C34.4121 29.1667 34.5428 28.4947 34.5428 27.86C34.5428 27.0947 34.3188 26.4693 33.8708 25.984C33.4415 25.48 32.7508 25.228 31.7988 25.228C31.2015 25.228 30.5855 25.3587 29.9508 25.62C29.3348 25.8627 28.8121 26.18 28.3828 26.572L26.9268 23.996C27.6548 23.3987 28.4761 22.9227 29.3908 22.568C30.3241 22.1947 31.4161 22.008 32.6668 22.008C33.4695 22.008 34.2068 22.12 34.8788 22.344C35.5508 22.568 36.1295 22.8947 36.6148 23.324C37.1001 23.7533 37.4828 24.2947 37.7628 24.948C38.0428 25.5827 38.1828 26.3293 38.1828 27.188ZM56.2535 36.54H53.1735V42H49.7855V36.54H41.3015V34.468L50.1775 22.26H53.1735V33.628H56.2535V36.54ZM49.7855 29.344L50.0375 26.992H49.9255L48.9735 29.008L46.0615 32.788L44.6615 33.852L46.4535 33.628H49.7855V29.344Z" fill="black"/>
</svg>
