<svg viewBox="0 0 64 64" xmlns="http://www.w3.org/2000/svg"><g fill="none" fill-rule="evenodd"><path d="M64 64H0V0h64v64z"></path><path d="M29.32 18.66c0 5.888-4.772 10.66-10.66 10.66C12.773 29.32 8 24.55 8 18.66 8 12.773 12.773 8 18.66 8c5.888 0 10.66 4.773 10.66 10.66" fill="#0AF"></path><path d="M56 43.028C56 50.192 50.193 56 43.03 56c-7.165 0-12.972-5.808-12.972-12.972s5.807-12.97 12.97-12.97c7.165 0 12.972 5.806 12.972 12.97" fill="#97CF26"></path><path d="M51.377 18.66a8.35 8.35 0 1 1-16.698 0 8.35 8.35 0 0 1 16.697 0" fill="#FF6163"></path><path d="M24.696 43.028a6.037 6.037 0 1 1-6.036-6.038 6.038 6.038 0 0 1 6.036 6.038" fill="#A169F8"></path></g></svg>
